<?xml version="1.0" standalone="no"?>
<!DOCTYPE svg PUBLIC "-//W3C//DTD SVG 20010904//EN"
 "http://www.w3.org/TR/2001/REC-SVG-20010904/DTD/svg10.dtd">
<svg version="1.0" xmlns="http://www.w3.org/2000/svg"
 width="260.000000pt" height="260.000000pt" viewBox="0 0 260.000000 260.000000"
 preserveAspectRatio="xMidYMid meet">
<metadata>
Created by potrace 1.11, written by Peter Selinger 2001-2013
</metadata>
<g transform="translate(0.000000,260.000000) scale(0.100000,-0.100000)"
fill="#000000" stroke="none">
<path d="M1089 2298 c-13 -29 -26 -55 -29 -58 -10 -10 -84 -165 -82 -173 1 -4
-4 -10 -12 -13 -8 -3 -12 -12 -9 -20 3 -8 0 -14 -6 -14 -6 0 -11 -9 -11 -21 0
-11 -4 -18 -9 -15 -5 3 -8 0 -8 -7 2 -19 -65 -148 -80 -154 -7 -3 -13 -11 -13
-18 0 -16 -31 -77 -43 -86 -5 -3 -8 -9 -8 -13 3 -15 -36 -86 -43 -79 -4 5 -7
1 -5 -7 4 -17 -42 -120 -53 -120 -5 0 -8 -9 -8 -20 0 -11 -4 -20 -10 -20 -5 0
-10 -3 -9 -7 2 -16 -14 -53 -22 -53 -5 0 -8 -3 -7 -7 2 -13 -14 -46 -39 -80
-13 -18 -21 -33 -17 -33 4 0 -1 -9 -11 -20 -10 -11 -14 -20 -9 -20 5 0 5 -4
-1 -8 -5 -4 -23 -35 -39 -69 -16 -35 -34 -63 -38 -63 -5 0 -7 -4 -3 -9 3 -5 1
-12 -5 -16 -6 -4 -8 -10 -5 -15 3 -4 -2 -13 -10 -20 -8 -7 -12 -16 -9 -21 3
-5 1 -9 -4 -9 -5 0 -12 -9 -15 -20 -3 -11 -6 -24 -7 -28 -1 -4 -10 -18 -19
-32 -20 -29 -35 -62 -33 -72 1 -5 -3 -8 -8 -8 -6 0 -10 -4 -10 -10 0 -8 -38
-71 -58 -95 -5 -6 -7 -16 -4 -23 2 -6 -2 -12 -8 -12 -7 0 -10 -7 -6 -15 3 -9
0 -15 -10 -15 -8 0 -13 -4 -9 -10 5 -8 -12 -48 -26 -60 -4 -3 -10 -16 -14 -30
-4 -14 -10 -27 -14 -30 -5 -4 -52 -95 -57 -110 -13 -41 -18 -50 -25 -50 -5 0
-9 -6 -9 -12 -1 -24 -36 -88 -45 -81 -4 5 -5 3 -1 -4 5 -9 269 -11 1087 -11
l1081 0 43 29 c24 16 48 29 54 29 6 0 11 4 11 9 0 5 9 12 20 16 24 8 128 113
136 138 3 11 13 28 23 38 9 11 16 23 17 27 0 4 4 15 7 25 26 68 28 77 34 173
8 144 -41 274 -147 384 -50 52 -190 144 -190 124 0 -3 -7 0 -16 7 -9 7 -31 12
-48 11 -19 -2 -37 3 -44 11 -13 15 -10 16 53 19 19 1 35 5 35 9 0 4 12 10 28
14 49 12 138 74 196 135 31 34 56 65 56 70 0 5 8 19 17 29 9 11 18 26 19 33 1
7 11 40 23 73 15 44 20 84 19 155 0 52 -4 100 -8 105 -5 6 -10 21 -12 35 -1
14 -7 28 -11 31 -5 3 -9 12 -11 20 -14 82 -152 227 -256 269 -19 7 -46 22 -59
32 -22 17 -57 18 -561 18 l-537 0 -24 -52z"/>
</g>
</svg>
